<svg width="22px" height="22px" viewBox="0 0 1024 1024" style="display: inline-block; vertical-align: middle;"><circle cx="512" cy="512" r="500" style="fill: rgb(162, 56, 255);"></circle><g transform="scale(0.62) translate(320, 320)"><path d="M858.828 156.228c9.474-54.912 23.377-89.441 38.778-89.508h0.029c28.717 0.099 51.995 119.85 51.995 267.7s-23.311 267.7-52.057 267.7c-11.786 0-22.662-20.349-31.417-54.451-13.837 124.833-42.55 210.645-75.792 210.645-25.719 0-48.801-51.549-64.297-132.843-10.58 154.609-37.21 264.303-68.336 264.303-19.534 0-37.343-43.468-50.527-114.246-15.854 146.1-52.481 248.471-95.194 248.471s-79.406-102.337-95.194-248.471c-13.088 70.776-30.896 114.246-50.527 114.246-31.125 0-57.689-109.695-68.336-264.303-15.496 81.294-38.512 132.843-64.297 132.843-33.205 0-61.955-85.783-75.792-210.645-8.692 34.201-19.631 54.451-31.417 54.451-28.747 0-52.057-119.847-52.057-267.7s23.311-267.7 52.057-267.7c15.43 0 29.237 34.629 38.807 89.508 15.334-94.688 40.238-156.228 68.398-156.228 33.433 0 62.409 87.033 76.117 213.414 13.413-91.981 33.762-150.618 56.55-150.618 31.94 0 59.090 115.333 69.151 276.208 18.915-82.482 46.297-134.23 76.607-134.23s57.689 51.777 76.57 134.23c10.093-160.878 37.21-276.208 69.151-276.208 22.753 0 43.070 58.641 56.55 150.622 13.674-126.385 42.649-213.418 76.084-213.418 28.065 0 53.064 61.572 68.398 156.228zM0.003 308.090c0-66.093 13.217-119.684 29.529-119.684s29.529 53.591 29.529 119.684-13.217 119.684-29.529 119.684-29.529-53.595-29.529-119.684zM964.938 308.090c0-66.093 13.217-119.684 29.529-119.684s29.529 53.591 29.529 119.684-13.221 119.684-29.529 119.684-29.529-53.595-29.529-119.684z" style="fill: rgb(255, 255, 255); fill-opacity: 1;"></path></g></svg>