<?xml version="1.0" encoding="UTF-8"?>
<svg width="32" height="32" viewBox="0 0 32 32" fill="none" xmlns="http://www.w3.org/2000/svg">
    <!-- Background circle -->
    <circle cx="16" cy="16" r="16" fill="#0F172A"/>
    
    <!-- Headphone design -->
    <path d="M8 20.5V16C8 11.5817 11.5817 8 16 8C20.4183 8 24 11.5817 24 16V20.5" stroke="#3B82F6" stroke-width="2" stroke-linecap="round"/>
    
    <!-- Left ear cup -->
    <path d="M8 17H10C11.1046 17 12 17.8954 12 19V22C12 23.1046 11.1046 24 10 24H8C6.89543 24 6 23.1046 6 22V19C6 17.8954 6.89543 17 8 17Z" fill="#3B82F6"/>
    
    <!-- Right ear cup -->
    <path d="M22 17H24C25.1046 17 26 17.8954 26 19V22C26 23.1046 25.1046 24 24 24H22C20.8954 24 20 23.1046 20 22V19C20 17.8954 20.8954 17 22 17Z" fill="#3B82F6"/>
</svg> 